<svg width="352" height="413" viewBox="0 0 352 413" fill="none" xmlns="http://www.w3.org/2000/svg">
<path d="M221.163 74.9348C149.489 74.9348 95.5127 119.709 88.2256 181.13H127.68C134.967 142.618 172.34 115.534 221.371 115.534C276.389 115.534 317.925 150.967 317.925 197.777V209.257L180.616 221.729C73.7035 231.122 0 282.106 0 385.17C0 479.884 72.8707 547.567 180.616 547.567C235.685 547.567 283.416 531.912 317.717 503.837V536.139H358.212V197.777C358.212 127.015 302.102 74.9348 221.163 74.9348ZM317.717 351.877C317.717 401.817 272.017 439.337 200.395 439.337C147.407 439.337 118.311 414.341 118.311 383.083C118.311 350.833 139.131 327.924 191.182 323.749L317.873 312.321L317.717 351.877ZM317.717 276.888L187.903 288.368C116.281 294.63 76.8265 326.88 76.8265 384.126C76.8265 437.25 121.486 476.806 194.149 476.806C250.207 476.806 294.867 457.028 317.717 424.621V463.133C288.621 492.304 242.972 510.099 187.903 510.099C98.6359 510.099 41.4842 457.028 41.4842 384.126C41.4842 305.85 96.5019 264.416 184.78 257.11L317.717 245.682V276.888Z" fill="#D83A41"/>
<path d="M221.165 0C104.832 0 19.6767 77.0239 12.4417 181.131H52.9372C60.3804 99.9328 128.723 39.5557 221.165 39.5557C322.924 39.5557 393.505 106.195 393.505 197.778V536.141H434V197.778C434 83.4948 347.804 0 221.165 0Z" fill="#D83A41"/>
</svg>
