<svg width="170" height="25" viewBox="0 0 170 25" fill="none" xmlns="http://www.w3.org/2000/svg">
<path d="M0.9 16.8501V9.8701H3.44C4.08667 9.8701 4.58 10.0468 4.92 10.4001C5.26 10.7534 5.43 11.2468 5.43 11.8801C5.43 12.5134 5.26 13.0068 4.92 13.3601C4.58 13.7134 4.08667 13.8901 3.44 13.8901H1.74V16.8501H0.9ZM1.74 13.1601H3.42C3.77333 13.1601 4.04667 13.0734 4.24 12.9001C4.44 12.7201 4.54 12.4668 4.54 12.1401V11.6201C4.54 11.2934 4.44 11.0434 4.24 10.8701C4.04667 10.6901 3.77333 10.6001 3.42 10.6001H1.74V13.1601ZM8.79609 16.9701C8.43609 16.9701 8.10943 16.9068 7.81609 16.7801C7.52943 16.6534 7.28276 16.4734 7.07609 16.2401C6.87609 16.0001 6.72276 15.7168 6.61609 15.3901C6.50943 15.0568 6.45609 14.6834 6.45609 14.2701C6.45609 13.8634 6.50943 13.4934 6.61609 13.1601C6.72276 12.8268 6.87609 12.5434 7.07609 12.3101C7.28276 12.0701 7.52943 11.8868 7.81609 11.7601C8.10943 11.6334 8.43609 11.5701 8.79609 11.5701C9.15609 11.5701 9.47943 11.6334 9.76609 11.7601C10.0594 11.8868 10.3061 12.0701 10.5061 12.3101C10.7128 12.5434 10.8694 12.8268 10.9761 13.1601C11.0828 13.4934 11.1361 13.8634 11.1361 14.2701C11.1361 14.6834 11.0828 15.0568 10.9761 15.3901C10.8694 15.7168 10.7128 16.0001 10.5061 16.2401C10.3061 16.4734 10.0594 16.6534 9.76609 16.7801C9.47943 16.9068 9.15609 16.9701 8.79609 16.9701ZM8.79609 16.2801C9.24276 16.2801 9.60276 16.1468 9.87609 15.8801C10.1494 15.6134 10.2861 15.2001 10.2861 14.6401V13.9001C10.2861 13.3401 10.1494 12.9268 9.87609 12.6601C9.60276 12.3934 9.24276 12.2601 8.79609 12.2601C8.34943 12.2601 7.98943 12.3934 7.71609 12.6601C7.44276 12.9268 7.30609 13.3401 7.30609 13.9001V14.6401C7.30609 15.2001 7.44276 15.6134 7.71609 15.8801C7.98943 16.1468 8.34943 16.2801 8.79609 16.2801ZM11.8922 11.6901H12.6022L13.1922 16.1501H13.2822L14.1622 11.6901H15.0422L15.9222 16.1501H16.0122L16.6022 11.6901H17.2922L16.5022 16.8501H15.4622L14.6422 12.5301H14.5622L13.7222 16.8501H12.6822L11.8922 11.6901ZM20.4783 16.9701C20.1049 16.9701 19.7683 16.9068 19.4683 16.7801C19.1749 16.6534 18.9216 16.4734 18.7083 16.2401C18.5016 16.0001 18.3416 15.7168 18.2283 15.3901C18.1149 15.0568 18.0583 14.6868 18.0583 14.2801C18.0583 13.8668 18.1149 13.4934 18.2283 13.1601C18.3483 12.8268 18.5116 12.5434 18.7183 12.3101C18.9249 12.0701 19.1716 11.8868 19.4583 11.7601C19.7516 11.6334 20.0749 11.5701 20.4283 11.5701C20.7749 11.5701 21.0883 11.6334 21.3683 11.7601C21.6549 11.8868 21.8983 12.0634 22.0983 12.2901C22.2983 12.5101 22.4516 12.7734 22.5583 13.0801C22.6649 13.3868 22.7183 13.7234 22.7183 14.0901V14.4701H18.8983V14.7101C18.8983 14.9368 18.9349 15.1468 19.0083 15.3401C19.0816 15.5334 19.1849 15.7001 19.3183 15.8401C19.4583 15.9801 19.6249 16.0901 19.8183 16.1701C20.0183 16.2434 20.2383 16.2801 20.4783 16.2801C20.8249 16.2801 21.1249 16.2001 21.3783 16.0401C21.6316 15.8801 21.8249 15.6601 21.9583 15.3801L22.5483 15.7801C22.3949 16.1268 22.1383 16.4134 21.7783 16.6401C21.4249 16.8601 20.9916 16.9701 20.4783 16.9701ZM20.4283 12.2301C20.2083 12.2301 20.0049 12.2701 19.8183 12.3501C19.6316 12.4301 19.4683 12.5401 19.3283 12.6801C19.1949 12.8201 19.0883 12.9868 19.0083 13.1801C18.9349 13.3668 18.8983 13.5734 18.8983 13.8001V13.8701H21.8583V13.7601C21.8583 13.5334 21.8216 13.3268 21.7483 13.1401C21.6816 12.9534 21.5849 12.7934 21.4583 12.6601C21.3383 12.5201 21.1883 12.4134 21.0083 12.3401C20.8349 12.2668 20.6416 12.2301 20.4283 12.2301ZM23.9544 16.1701H25.4644V12.3701H23.9544V11.6901H26.2644V12.9901H26.3144C26.421 12.5834 26.621 12.2668 26.9144 12.0401C27.2144 11.8068 27.5944 11.6901 28.0544 11.6901H28.7744V12.4901H27.8044C27.3444 12.4901 26.971 12.6234 26.6844 12.8901C26.4044 13.1568 26.2644 13.5068 26.2644 13.9401V16.1701H28.2644V16.8501H23.9544V16.1701ZM32.0705 16.9701C31.6971 16.9701 31.3605 16.9068 31.0605 16.7801C30.7671 16.6534 30.5138 16.4734 30.3005 16.2401C30.0938 16.0001 29.9338 15.7168 29.8205 15.3901C29.7071 15.0568 29.6505 14.6868 29.6505 14.2801C29.6505 13.8668 29.7071 13.4934 29.8205 13.1601C29.9405 12.8268 30.1038 12.5434 30.3105 12.3101C30.5171 12.0701 30.7638 11.8868 31.0505 11.7601C31.3438 11.6334 31.6671 11.5701 32.0205 11.5701C32.3671 11.5701 32.6805 11.6334 32.9605 11.7601C33.2471 11.8868 33.4905 12.0634 33.6905 12.2901C33.8905 12.5101 34.0438 12.7734 34.1505 13.0801C34.2571 13.3868 34.3105 13.7234 34.3105 14.0901V14.4701H30.4905V14.7101C30.4905 14.9368 30.5271 15.1468 30.6005 15.3401C30.6738 15.5334 30.7771 15.7001 30.9105 15.8401C31.0505 15.9801 31.2171 16.0901 31.4105 16.1701C31.6105 16.2434 31.8305 16.2801 32.0705 16.2801C32.4171 16.2801 32.7171 16.2001 32.9705 16.0401C33.2238 15.8801 33.4171 15.6601 33.5505 15.3801L34.1405 15.7801C33.9871 16.1268 33.7305 16.4134 33.3705 16.6401C33.0171 16.8601 32.5838 16.9701 32.0705 16.9701ZM32.0205 12.2301C31.8005 12.2301 31.5971 12.2701 31.4105 12.3501C31.2238 12.4301 31.0605 12.5401 30.9205 12.6801C30.7871 12.8201 30.6805 12.9868 30.6005 13.1801C30.5271 13.3668 30.4905 13.5734 30.4905 13.8001V13.8701H33.4505V13.7601C33.4505 13.5334 33.4138 13.3268 33.3405 13.1401C33.2738 12.9534 33.1771 12.7934 33.0505 12.6601C32.9305 12.5201 32.7805 12.4134 32.6005 12.3401C32.4271 12.2668 32.2338 12.2301 32.0205 12.2301ZM39.0266 16.0101H38.9866C38.6532 16.6501 38.1232 16.9701 37.3966 16.9701C36.7632 16.9701 36.2666 16.7334 35.9066 16.2601C35.5532 15.7868 35.3766 15.1234 35.3766 14.2701C35.3766 13.4168 35.5532 12.7534 35.9066 12.2801C36.2666 11.8068 36.7632 11.5701 37.3966 11.5701C38.1232 11.5701 38.6532 11.8901 38.9866 12.5301H39.0266V9.4501H39.8266V16.8501H39.0266V16.0101ZM37.7066 16.2601C37.8866 16.2601 38.0566 16.2368 38.2166 16.1901C38.3766 16.1434 38.5166 16.0768 38.6366 15.9901C38.7566 15.8968 38.8499 15.7868 38.9166 15.6601C38.9899 15.5268 39.0266 15.3734 39.0266 15.2001V13.3401C39.0266 13.1668 38.9899 13.0168 38.9166 12.8901C38.8499 12.7568 38.7566 12.6468 38.6366 12.5601C38.5166 12.4668 38.3766 12.3968 38.2166 12.3501C38.0566 12.3034 37.8866 12.2801 37.7066 12.2801C37.2399 12.2801 36.8766 12.4234 36.6166 12.7101C36.3632 12.9901 36.2366 13.3634 36.2366 13.8301V14.7101C36.2366 15.1768 36.3632 15.5534 36.6166 15.8401C36.8766 16.1201 37.2399 16.2601 37.7066 16.2601ZM47.3188 9.4501H48.1188V12.5301H48.1588C48.4921 11.8901 49.0221 11.5701 49.7488 11.5701C50.3821 11.5701 50.8754 11.8068 51.2288 12.2801C51.5888 12.7534 51.7688 13.4168 51.7688 14.2701C51.7688 15.1234 51.5888 15.7868 51.2288 16.2601C50.8754 16.7334 50.3821 16.9701 49.7488 16.9701C49.0221 16.9701 48.4921 16.6501 48.1588 16.0101H48.1188V16.8501H47.3188V9.4501ZM49.4388 16.2601C49.9054 16.2601 50.2654 16.1201 50.5188 15.8401C50.7788 15.5534 50.9088 15.1768 50.9088 14.7101V13.8301C50.9088 13.3634 50.7788 12.9901 50.5188 12.7101C50.2654 12.4234 49.9054 12.2801 49.4388 12.2801C49.2588 12.2801 49.0888 12.3034 48.9288 12.3501C48.7688 12.3968 48.6288 12.4668 48.5088 12.5601C48.3888 12.6468 48.2921 12.7568 48.2188 12.8901C48.1521 13.0168 48.1188 13.1668 48.1188 13.3401V15.2001C48.1188 15.3734 48.1521 15.5268 48.2188 15.6601C48.2921 15.7868 48.3888 15.8968 48.5088 15.9901C48.6288 16.0768 48.7688 16.1434 48.9288 16.1901C49.0888 16.2368 49.2588 16.2601 49.4388 16.2601ZM56.8348 11.6901H57.6348L55.0748 17.9801C55.0148 18.1268 54.9482 18.2534 54.8748 18.3601C54.8015 18.4734 54.7148 18.5634 54.6148 18.6301C54.5148 18.7034 54.3948 18.7568 54.2548 18.7901C54.1148 18.8301 53.9482 18.8501 53.7548 18.8501H52.9948V18.1701H54.1948L54.7748 16.7501L52.6948 11.6901H53.5148L54.3848 13.8501L55.1548 15.8101H55.1948L55.9648 13.8501L56.8348 11.6901Z" fill="white"/>
<g clip-path="url(#clip0_527_489)">
<path d="M65.3674 9.15088C65.7445 8.82885 66.3101 8.66784 67.0643 8.66784C67.5563 8.66268 68.0452 8.74638 68.5085 8.91507C68.9506 9.08217 69.3729 9.29961 69.7671 9.56328C69.9198 9.68509 70.1047 9.75746 70.2981 9.77104C70.4742 9.77455 70.6446 9.70697 70.772 9.58301C70.8354 9.52313 70.8856 9.45022 70.9194 9.36911C70.9531 9.288 70.9696 9.20052 70.9677 9.11244C70.972 8.967 70.9367 8.82319 70.8658 8.69692C70.7978 8.57989 70.6402 8.45038 70.3929 8.30841C69.942 7.98577 69.4425 7.74016 68.9141 7.58126C68.3219 7.40331 67.7071 7.31614 67.0898 7.3226C65.9504 7.3226 65.0457 7.61692 64.3758 8.20557C64.052 8.47909 63.7933 8.82383 63.6191 9.2139C63.4449 9.60397 63.3597 10.0292 63.3699 10.4577C63.3699 11.1502 63.5159 11.7042 63.8081 12.1197C64.103 12.538 64.4962 12.8741 64.9516 13.0973C65.4307 13.3359 65.9288 13.5326 66.4406 13.6852C66.9644 13.8424 67.4611 13.9996 67.9306 14.1568C68.3513 14.2868 68.7434 14.4984 69.0853 14.7801C69.3856 15.0391 69.5358 15.4041 69.5358 15.875C69.5358 16.4865 69.3279 16.9571 68.9121 17.2867C68.4962 17.6163 67.8881 17.7815 67.0878 17.7822C66.5656 17.7819 66.0464 17.7013 65.5478 17.5433C65.0571 17.3914 64.5934 17.1606 64.174 16.8598C64.0979 16.7909 64.0111 16.7354 63.9172 16.6956C63.8319 16.664 63.7419 16.6478 63.6512 16.6478C63.566 16.6474 63.4817 16.6649 63.4035 16.6992C63.3253 16.7335 63.2548 16.784 63.1966 16.8473C63.133 16.9099 63.0827 16.9852 63.0488 17.0685C63.015 17.1518 62.9983 17.2412 62.9999 17.3314C62.9953 17.4768 63.0306 17.6207 63.1018 17.7469C63.2151 17.9062 63.3607 18.0388 63.5289 18.1354C64.047 18.4761 64.6169 18.7267 65.2156 18.8771C65.8185 19.0384 66.439 19.1215 67.0623 19.1243C68.2323 19.1243 69.1757 18.8262 69.8925 18.2299C70.6093 17.6337 70.967 16.8411 70.9657 15.8521C70.9657 15.1596 70.8155 14.6104 70.5152 14.2046C70.2118 13.7932 69.8158 13.4622 69.3605 13.2396C68.8849 13.0014 68.3906 12.8044 67.8827 12.6506C67.3663 12.4934 66.8697 12.3327 66.3927 12.1686C65.9701 12.0321 65.5788 11.8102 65.2421 11.5162C64.9492 11.2503 64.8031 10.8895 64.8038 10.4338C64.7948 10.1902 64.841 9.94776 64.9387 9.72528C65.0364 9.50279 65.1831 9.30625 65.3674 9.15088Z" fill="white"/>
<path d="M82.0654 14.3543C81.9213 14.2484 81.7466 14.1947 81.5691 14.2016C81.3955 14.198 81.2253 14.2515 81.084 14.3543C80.9481 14.4568 80.8801 14.6255 80.8801 14.8602C80.8801 15.7702 80.68 16.4804 80.2798 16.9908C79.8797 17.5012 79.2559 17.7561 78.4087 17.7554C77.5308 17.7554 76.8996 17.5005 76.5151 16.9908C76.1305 16.4811 75.9379 15.7709 75.9372 14.8602V9.16038H80.6029C80.8489 9.16038 81.0221 9.0939 81.1227 8.96093C81.2202 8.81968 81.2726 8.65115 81.2726 8.47841C81.2726 8.30567 81.2202 8.13715 81.1227 7.9959C81.0215 7.86154 80.8482 7.79472 80.6029 7.79541H75.9331V4.7372C75.9331 4.48581 75.8638 4.31026 75.7293 4.20742C75.58 4.10187 75.4013 4.04831 75.2197 4.05471C75.0418 4.05166 74.8673 4.10502 74.7203 4.20742C74.5736 4.3113 74.5002 4.48581 74.5002 4.7372V7.79749H71.9615C71.7301 7.79749 71.565 7.86397 71.4641 7.99797C71.3666 8.13923 71.3142 8.30775 71.3142 8.48049C71.3142 8.65323 71.3666 8.82176 71.4641 8.96301C71.5609 9.09598 71.7301 9.16038 71.9615 9.16038H74.5012V14.8571C74.5012 16.1909 74.8409 17.2346 75.5204 17.988C76.1998 18.7415 77.1622 19.1183 78.4076 19.1183C79.1163 19.1346 79.8156 18.9513 80.4286 18.5885C81.0053 18.2367 81.4735 17.7271 81.7801 17.1175C82.1028 16.4901 82.2645 15.7446 82.2652 14.881C82.2621 14.6317 82.1959 14.4582 82.0654 14.3543Z" fill="white"/>
<path d="M87.7808 7.32681C86.9995 7.31367 86.2278 7.50388 85.5387 7.87945C84.8802 8.24666 84.3395 8.79956 83.9814 9.47192C83.6043 10.1644 83.4158 10.9955 83.4158 11.965V14.5776C83.4158 15.9903 83.8279 17.1008 84.652 17.909C85.4762 18.7172 86.5731 19.1213 87.9429 19.1213C88.5155 19.1207 89.0858 19.0457 89.6398 18.8979C90.1765 18.7592 90.6932 18.5497 91.1767 18.2747C91.53 18.0558 91.707 17.8048 91.7077 17.5215C91.7094 17.3536 91.6519 17.1907 91.5456 17.0624C91.4998 17.0004 91.4406 16.95 91.3725 16.9152C91.3044 16.8804 91.2294 16.8622 91.1532 16.8619C91.0748 16.8623 90.9968 16.8745 90.9219 16.8983C90.8161 16.936 90.7154 16.9873 90.6223 17.051C90.2074 17.2663 89.7746 17.4435 89.3289 17.5807C88.8859 17.7027 88.4283 17.7611 87.9694 17.7542C86.9842 17.7542 86.2219 17.4772 85.6824 16.9232C85.1429 16.3692 84.8735 15.5883 84.8742 14.5807V13.6583H91.3876C91.6485 13.6583 91.8371 13.5845 91.9533 13.4349C92.0785 13.2531 92.1396 13.0334 92.1265 12.8116V11.9401C92.1265 10.465 91.7189 9.32718 90.9035 8.52662C90.0882 7.72605 89.0473 7.32612 87.7808 7.32681ZM84.8711 11.9162C84.8711 10.8816 85.1368 10.0813 85.6681 9.51555C86.1994 8.94975 86.9037 8.6672 87.7808 8.66789C88.658 8.66789 89.3626 8.95044 89.8946 9.51555C90.4266 10.0806 90.6922 10.8809 90.6916 11.9162V12.3172H84.8711V11.9162Z" fill="white"/>
<path d="M101.881 7.60201C101.727 7.49805 101.546 7.44474 101.361 7.44931C101.184 7.4469 101.011 7.50023 100.865 7.60201C100.718 7.70589 100.646 7.88872 100.646 8.15569V8.91193C100.315 8.41906 99.8697 8.017 99.3499 7.74139C98.8301 7.46579 98.2516 7.32514 97.6657 7.33193C96.935 7.32225 96.2133 7.49599 95.5642 7.83782C94.9231 8.18488 94.397 8.7172 94.0517 9.36796C93.6739 10.0501 93.4854 10.9251 93.4861 11.993V14.4861C93.4861 16.0554 93.8598 17.2205 94.6072 17.9816C95.3545 18.7427 96.3058 19.1236 97.4608 19.1243C98.129 19.1265 98.7874 18.961 99.3779 18.6423C99.9478 18.3385 100.432 17.8903 100.782 17.3407L100.833 18.3473C100.848 18.5831 100.918 18.7514 101.037 18.8542C101.161 18.9561 101.317 19.0102 101.476 19.0069C101.642 19.0136 101.803 18.9544 101.926 18.8418C102.042 18.7379 102.099 18.5592 102.099 18.3224V8.15049C102.1 7.88352 102.028 7.69966 101.881 7.60201ZM100.646 14.7001C100.646 15.6253 100.392 16.3667 99.8834 16.9241C99.3751 17.4816 98.6746 17.7586 97.7818 17.7552C96.8116 17.7552 96.0917 17.4453 95.6222 16.8255C95.1528 16.2056 94.9177 15.4252 94.917 14.484V11.9909C94.917 11.0331 95.1521 10.2485 95.6222 9.63701C96.0924 9.0255 96.8123 8.71941 97.7818 8.71871C98.6746 8.71871 99.3751 8.99573 99.8834 9.54975C100.392 10.1038 100.646 10.8396 100.646 11.7572V14.7001Z" fill="white"/>
<path d="M114.203 7.32666C113.448 7.32666 112.798 7.49979 112.251 7.84606C111.733 8.17897 111.314 8.64897 111.038 9.20584C110.904 8.90003 110.721 8.61916 110.496 8.3748C109.841 7.67673 109.006 7.3277 107.99 7.3277C107.35 7.3135 106.718 7.48033 106.166 7.8097C105.735 8.07446 105.373 8.44246 105.114 8.88173L105.08 8.10472C105.065 7.86891 104.995 7.70063 104.876 7.59779C104.752 7.4957 104.597 7.44162 104.437 7.44508C104.272 7.43793 104.11 7.49386 103.982 7.60194C103.868 7.70444 103.81 7.88103 103.809 8.13173V18.3254C103.8 18.4222 103.814 18.5198 103.85 18.6101C103.885 18.7004 103.941 18.7809 104.013 18.8448C104.16 18.9573 104.339 19.0155 104.523 19.01C104.707 19.014 104.888 18.9607 105.042 18.8573C105.188 18.7541 105.262 18.5775 105.262 18.3275V11.728C105.262 9.7197 106.07 8.71553 107.686 8.71553C108.533 8.71553 109.134 8.98215 109.488 9.5154C109.842 10.0486 110.019 10.7862 110.019 11.728V18.3202C110.011 18.4186 110.027 18.5175 110.065 18.6081C110.103 18.6987 110.163 18.7783 110.239 18.8396C110.39 18.9508 110.572 19.0088 110.758 19.0048C110.941 19.0103 111.121 18.9521 111.267 18.8396C111.339 18.7757 111.395 18.6953 111.431 18.6049C111.466 18.5146 111.48 18.4171 111.471 18.3202V11.728C111.471 9.7197 112.287 8.71553 113.917 8.71553C114.749 8.71553 115.345 8.98215 115.707 9.5154C116.068 10.0486 116.249 10.7862 116.25 11.728V18.3202C116.241 18.4171 116.255 18.5146 116.291 18.6049C116.326 18.6953 116.382 18.7757 116.454 18.8396C116.6 18.9522 116.78 19.0104 116.964 19.0048C117.15 19.0086 117.332 18.9506 117.483 18.8396C117.559 18.7783 117.619 18.6987 117.657 18.6081C117.696 18.5175 117.712 18.4186 117.703 18.3202V11.6813C117.703 10.175 117.372 9.07253 116.71 8.37377C116.047 7.675 115.212 7.32597 114.203 7.32666Z" fill="white"/>
<path d="M123.833 2.23779C122.429 2.23779 121.372 3.12908 121.23 4.35174H122.002C122.145 3.58511 122.877 3.04597 123.837 3.04597C124.914 3.04597 125.727 3.75131 125.727 4.68311V4.91165L123.039 5.15992C120.945 5.3469 119.502 6.3618 119.502 8.41342C119.502 10.2988 120.929 11.6461 123.039 11.6461C124.117 11.6461 125.052 11.3345 125.723 10.7756V11.4186H126.516V4.68311C126.516 3.27451 125.417 2.23779 123.833 2.23779ZM125.723 7.75067C125.723 8.74479 124.828 9.49169 123.426 9.49169C122.388 9.49169 121.819 8.9941 121.819 8.37187C121.819 7.72989 122.226 7.27386 123.246 7.19076L125.726 6.96326L125.723 7.75067ZM125.723 6.25792L123.181 6.48646C121.779 6.61111 121.006 7.25309 121.006 8.39264C121.006 9.45014 121.881 10.2375 123.304 10.2375C124.401 10.2375 125.276 9.84384 125.723 9.19875V9.96538C125.153 10.5461 124.26 10.9003 123.181 10.9003C121.434 10.9003 120.314 9.84384 120.314 8.39264C120.314 6.83445 121.392 6.00965 123.12 5.86422L125.723 5.63672V6.25792Z" fill="white"/>
<path d="M123.833 0.746094C121.555 0.746094 119.888 2.27935 119.746 4.35175H120.539C120.684 2.73538 122.023 1.5335 123.833 1.5335C125.825 1.5335 127.207 2.86004 127.207 4.68312V11.4187H128V4.68312C128 2.40816 126.312 0.746094 123.833 0.746094Z" fill="white"/>
</g>
<path d="M134.217 18.7876V7.73593H134.787V18.2651H140.392V18.7876H134.217ZM148.84 18.7876C148.598 18.7876 148.424 18.7295 148.318 18.6134C148.212 18.4973 148.154 18.3337 148.144 18.1226V17.5368H148.08C147.89 17.9379 147.584 18.2809 147.162 18.5659C146.74 18.8404 146.159 18.9776 145.42 18.9776C144.544 18.9776 143.869 18.777 143.394 18.3759C142.919 17.9748 142.681 17.4048 142.681 16.6659C142.681 16.3282 142.734 16.0168 142.84 15.7318C142.945 15.4468 143.125 15.204 143.378 15.0034C143.631 14.7923 143.964 14.634 144.375 14.5284C144.787 14.4123 145.294 14.3543 145.895 14.3543H148.128V13.1826C148.128 12.412 147.922 11.842 147.51 11.4726C147.109 11.1032 146.555 10.9184 145.848 10.9184C145.278 10.9184 144.777 11.0398 144.344 11.2826C143.911 11.5148 143.584 11.8843 143.362 12.3909L142.95 12.1218C143.172 11.6151 143.52 11.2087 143.995 10.9026C144.481 10.5859 145.104 10.4276 145.864 10.4276C146.75 10.4276 147.442 10.6651 147.938 11.1401C148.434 11.6045 148.682 12.2643 148.682 13.1193V18.2968H149.98V18.7876H148.84ZM145.468 18.5026C145.827 18.5026 146.165 18.4604 146.481 18.3759C146.809 18.2809 147.094 18.149 147.336 17.9801C147.579 17.8007 147.769 17.5843 147.906 17.3309C148.054 17.0776 148.128 16.782 148.128 16.4443V14.7976H145.911C144.972 14.7976 144.296 14.9507 143.885 15.2568C143.484 15.5523 143.283 15.9429 143.283 16.4284V16.9034C143.283 17.4207 143.484 17.8165 143.885 18.0909C144.286 18.3654 144.814 18.5026 145.468 18.5026ZM152.856 7.07093H153.41V11.8684H153.458C153.648 11.4884 153.954 11.1559 154.376 10.8709C154.798 10.5754 155.342 10.4276 156.007 10.4276C157.041 10.4276 157.849 10.7865 158.429 11.5043C159.01 12.222 159.3 13.2882 159.3 14.7026C159.3 16.117 159.01 17.1832 158.429 17.9009C157.849 18.6187 157.041 18.9776 156.007 18.9776C155.342 18.9776 154.798 18.8351 154.376 18.5501C153.954 18.2545 153.648 17.9168 153.458 17.5368H153.41V18.7876H152.856V7.07093ZM155.88 18.4868C156.788 18.4868 157.485 18.1912 157.97 17.6001C158.456 16.9984 158.698 16.1857 158.698 15.1618V14.2434C158.698 13.2195 158.456 12.412 157.97 11.8209C157.485 11.2193 156.788 10.9184 155.88 10.9184C155.553 10.9184 155.242 10.9659 154.946 11.0609C154.65 11.1559 154.387 11.2932 154.154 11.4726C153.933 11.652 153.753 11.8684 153.616 12.1218C153.479 12.3751 153.41 12.6548 153.41 12.9609V16.4443C153.41 16.7504 153.479 17.0301 153.616 17.2834C153.753 17.5368 153.933 17.7532 154.154 17.9326C154.387 18.112 154.65 18.2493 154.946 18.3443C155.242 18.4393 155.553 18.4868 155.88 18.4868ZM165.469 18.9776C164.677 18.9776 163.981 18.8457 163.379 18.5818C162.788 18.3073 162.271 17.9009 161.827 17.3626L162.223 17.0301C162.635 17.5368 163.099 17.9115 163.616 18.1543C164.144 18.3865 164.762 18.5026 165.469 18.5026C166.271 18.5026 166.915 18.3495 167.401 18.0434C167.897 17.7268 168.145 17.2412 168.145 16.5868C168.145 16.3018 168.097 16.0643 168.002 15.8743C167.907 15.6843 167.77 15.5312 167.591 15.4151C167.411 15.2884 167.195 15.1934 166.941 15.1301C166.688 15.0562 166.408 14.9982 166.102 14.9559L164.836 14.7818C164.487 14.729 164.155 14.6657 163.838 14.5918C163.521 14.5073 163.242 14.3859 162.999 14.2276C162.767 14.0693 162.577 13.8687 162.429 13.6259C162.292 13.3726 162.223 13.0559 162.223 12.6759C162.223 12.2748 162.302 11.9318 162.461 11.6468C162.619 11.3618 162.83 11.1295 163.094 10.9501C163.368 10.7707 163.685 10.6387 164.044 10.5543C164.413 10.4698 164.804 10.4276 165.216 10.4276C165.606 10.4276 165.96 10.4645 166.276 10.5384C166.604 10.6018 166.894 10.6968 167.147 10.8234C167.411 10.9395 167.643 11.0768 167.844 11.2351C168.055 11.3829 168.24 11.5412 168.398 11.7101L168.018 12.0901C167.891 11.9423 167.744 11.7998 167.575 11.6626C167.406 11.5148 167.205 11.3882 166.973 11.2826C166.751 11.1665 166.493 11.0768 166.197 11.0134C165.912 10.9395 165.58 10.9026 165.2 10.9026C164.461 10.9026 163.87 11.0451 163.426 11.3301C162.994 11.6045 162.777 12.0426 162.777 12.6443C162.777 12.9293 162.825 13.1668 162.92 13.3568C163.015 13.5362 163.152 13.6893 163.331 13.8159C163.511 13.932 163.727 14.027 163.981 14.1009C164.234 14.1643 164.514 14.217 164.82 14.2593L166.102 14.4493C166.451 14.502 166.778 14.5707 167.084 14.6551C167.401 14.729 167.675 14.8451 167.907 15.0034C168.15 15.1512 168.34 15.3518 168.477 15.6051C168.625 15.8584 168.699 16.1751 168.699 16.5551C168.699 16.9668 168.615 17.3257 168.446 17.6318C168.287 17.9379 168.066 18.1912 167.781 18.3918C167.496 18.5818 167.153 18.7243 166.751 18.8193C166.361 18.9248 165.933 18.9776 165.469 18.9776Z" fill="white"/>
<defs>
<clipPath id="clip0_527_489">
<rect width="65" height="18.3742" fill="white" transform="translate(63 0.746094)"/>
</clipPath>
</defs>
</svg>
