<svg width="301" height="20" viewBox="0 0 301 20" fill="none" xmlns="http://www.w3.org/2000/svg">
<path d="M1.296 19L0.264 2.248H3.36L3.84 12.28L3.984 15.448H4.2L5.64 5.896H8.88L10.32 15.448H10.536L10.68 12.376L11.16 2.248H14.136L13.104 19H8.544L7.32 9.76H7.08L5.856 19H1.296ZM21.9266 19.288C19.8466 19.288 18.2706 18.712 17.1986 17.56C16.1266 16.408 15.5906 14.84 15.5906 12.856C15.5906 11.848 15.7266 10.944 15.9986 10.144C16.2866 9.328 16.6866 8.64 17.1986 8.08C17.7266 7.504 18.3586 7.072 19.0946 6.784C19.8466 6.48 20.6866 6.328 21.6146 6.328C22.5426 6.328 23.3746 6.48 24.1106 6.784C24.8466 7.072 25.4706 7.488 25.9826 8.032C26.4946 8.576 26.8866 9.24 27.1586 10.024C27.4466 10.792 27.5906 11.656 27.5906 12.616V13.672H19.1186V13.888C19.1186 14.688 19.3666 15.336 19.8626 15.832C20.3586 16.312 21.0866 16.552 22.0466 16.552C22.7826 16.552 23.4146 16.416 23.9426 16.144C24.4706 15.856 24.9266 15.48 25.3106 15.016L27.2306 17.104C26.7506 17.696 26.0786 18.208 25.2146 18.64C24.3506 19.072 23.2546 19.288 21.9266 19.288ZM21.6386 8.872C20.8706 8.872 20.2546 9.112 19.7906 9.592C19.3426 10.056 19.1186 10.688 19.1186 11.488V11.68H24.1106V11.488C24.1106 10.672 23.8866 10.032 23.4386 9.568C23.0066 9.104 22.4066 8.872 21.6386 8.872ZM30.4133 16.24H34.2053V4H30.4133V1.24H37.7573V16.24H41.5493V19H30.4133V16.24ZM50.8759 19.288C49.8999 19.288 49.0199 19.144 48.2359 18.856C47.4679 18.552 46.8119 18.12 46.2679 17.56C45.7399 17 45.3319 16.32 45.0439 15.52C44.7559 14.72 44.6119 13.816 44.6119 12.808C44.6119 11.8 44.7559 10.896 45.0439 10.096C45.3319 9.296 45.7399 8.616 46.2679 8.056C46.8119 7.496 47.4679 7.072 48.2359 6.784C49.0199 6.48 49.8919 6.328 50.8519 6.328C52.2119 6.328 53.2999 6.608 54.1159 7.168C54.9479 7.712 55.5799 8.44 56.0119 9.352L53.2759 10.84C53.0519 10.36 52.7559 9.96 52.3879 9.64C52.0359 9.32 51.5239 9.16 50.8519 9.16C50.0359 9.16 49.4039 9.4 48.9559 9.88C48.5239 10.344 48.3079 10.984 48.3079 11.8V13.816C48.3079 14.632 48.5239 15.28 48.9559 15.76C49.4039 16.224 50.0519 16.456 50.8999 16.456C51.5879 16.456 52.1239 16.296 52.5079 15.976C52.9079 15.656 53.2439 15.24 53.5159 14.728L56.2039 16.264C55.7559 17.176 55.0999 17.912 54.2359 18.472C53.3879 19.016 52.2679 19.288 50.8759 19.288ZM64.7625 19.288C63.8025 19.288 62.9385 19.144 62.1705 18.856C61.4025 18.552 60.7465 18.12 60.2025 17.56C59.6745 17 59.2665 16.32 58.9785 15.52C58.6905 14.72 58.5465 13.816 58.5465 12.808C58.5465 11.8 58.6905 10.896 58.9785 10.096C59.2665 9.296 59.6745 8.616 60.2025 8.056C60.7465 7.496 61.4025 7.072 62.1705 6.784C62.9385 6.48 63.8025 6.328 64.7625 6.328C65.7225 6.328 66.5865 6.48 67.3545 6.784C68.1225 7.072 68.7705 7.496 69.2985 8.056C69.8425 8.616 70.2585 9.296 70.5465 10.096C70.8345 10.896 70.9785 11.8 70.9785 12.808C70.9785 13.816 70.8345 14.72 70.5465 15.52C70.2585 16.32 69.8425 17 69.2985 17.56C68.7705 18.12 68.1225 18.552 67.3545 18.856C66.5865 19.144 65.7225 19.288 64.7625 19.288ZM64.7625 16.648C65.5625 16.648 66.1865 16.4 66.6345 15.904C67.0825 15.408 67.3065 14.704 67.3065 13.792V11.824C67.3065 10.912 67.0825 10.208 66.6345 9.712C66.1865 9.216 65.5625 8.968 64.7625 8.968C63.9625 8.968 63.3385 9.216 62.8905 9.712C62.4425 10.208 62.2185 10.912 62.2185 11.824V13.792C62.2185 14.704 62.4425 15.408 62.8905 15.904C63.3385 16.4 63.9625 16.648 64.7625 16.648ZM72.6731 19V6.616H75.5291V8.44H75.6971C75.8891 7.864 76.1611 7.368 76.5131 6.952C76.8811 6.536 77.3931 6.328 78.0491 6.328C79.2491 6.328 79.9851 7.032 80.2571 8.44H80.4011C80.4971 8.152 80.6171 7.88 80.7611 7.624C80.9051 7.368 81.0811 7.144 81.2891 6.952C81.4971 6.76 81.7451 6.608 82.0331 6.496C82.3211 6.384 82.6571 6.328 83.0411 6.328C84.7691 6.328 85.6331 7.6 85.6331 10.144V19H82.7771V10.504C82.7771 9.928 82.6731 9.528 82.4651 9.304C82.2731 9.064 82.0171 8.944 81.6971 8.944C81.3931 8.944 81.1291 9.048 80.9051 9.256C80.6971 9.448 80.5931 9.752 80.5931 10.168V19H77.7131V10.504C77.7131 9.928 77.6171 9.528 77.4251 9.304C77.2491 9.064 77.0011 8.944 76.6811 8.944C76.3611 8.944 76.0891 9.048 75.8651 9.256C75.6411 9.448 75.5291 9.752 75.5291 10.168V19H72.6731ZM93.8798 19.288C91.7998 19.288 90.2238 18.712 89.1518 17.56C88.0798 16.408 87.5438 14.84 87.5438 12.856C87.5438 11.848 87.6798 10.944 87.9518 10.144C88.2398 9.328 88.6398 8.64 89.1518 8.08C89.6798 7.504 90.3118 7.072 91.0478 6.784C91.7998 6.48 92.6398 6.328 93.5678 6.328C94.4958 6.328 95.3278 6.48 96.0638 6.784C96.7998 7.072 97.4238 7.488 97.9358 8.032C98.4478 8.576 98.8398 9.24 99.1118 10.024C99.3998 10.792 99.5438 11.656 99.5438 12.616V13.672H91.0718V13.888C91.0718 14.688 91.3198 15.336 91.8158 15.832C92.3118 16.312 93.0398 16.552 93.9998 16.552C94.7358 16.552 95.3678 16.416 95.8958 16.144C96.4238 15.856 96.8798 15.48 97.2638 15.016L99.1838 17.104C98.7038 17.696 98.0318 18.208 97.1678 18.64C96.3038 19.072 95.2078 19.288 93.8798 19.288ZM93.5918 8.872C92.8238 8.872 92.2078 9.112 91.7438 9.592C91.2958 10.056 91.0718 10.688 91.0718 11.488V11.68H96.0638V11.488C96.0638 10.672 95.8398 10.032 95.3918 9.568C94.9598 9.104 94.3598 8.872 93.5918 8.872ZM123.285 19C122.005 19 121.053 18.664 120.429 17.992C119.805 17.32 119.493 16.464 119.493 15.424V9.376H116.133V6.616H118.317C118.845 6.616 119.221 6.512 119.445 6.304C119.669 6.096 119.781 5.712 119.781 5.152V2.248H123.045V6.616H127.869V9.376H123.045V16.24H127.869V19H123.285ZM136.716 19.288C135.756 19.288 134.892 19.144 134.124 18.856C133.356 18.552 132.7 18.12 132.156 17.56C131.628 17 131.22 16.32 130.932 15.52C130.644 14.72 130.5 13.816 130.5 12.808C130.5 11.8 130.644 10.896 130.932 10.096C131.22 9.296 131.628 8.616 132.156 8.056C132.7 7.496 133.356 7.072 134.124 6.784C134.892 6.48 135.756 6.328 136.716 6.328C137.676 6.328 138.54 6.48 139.308 6.784C140.076 7.072 140.724 7.496 141.252 8.056C141.796 8.616 142.212 9.296 142.5 10.096C142.788 10.896 142.932 11.8 142.932 12.808C142.932 13.816 142.788 14.72 142.5 15.52C142.212 16.32 141.796 17 141.252 17.56C140.724 18.12 140.076 18.552 139.308 18.856C138.54 19.144 137.676 19.288 136.716 19.288ZM136.716 16.648C137.516 16.648 138.14 16.4 138.588 15.904C139.036 15.408 139.26 14.704 139.26 13.792V11.824C139.26 10.912 139.036 10.208 138.588 9.712C138.14 9.216 137.516 8.968 136.716 8.968C135.916 8.968 135.292 9.216 134.844 9.712C134.396 10.208 134.172 10.912 134.172 11.824V13.792C134.172 14.704 134.396 15.408 134.844 15.904C135.292 16.4 135.916 16.648 136.716 16.648ZM166.265 5.032C165.465 5.032 164.905 4.872 164.585 4.552C164.281 4.216 164.129 3.816 164.129 3.352V2.656C164.129 2.176 164.281 1.776 164.585 1.456C164.905 1.136 165.465 0.975999 166.265 0.975999C167.065 0.975999 167.617 1.136 167.921 1.456C168.241 1.776 168.401 2.176 168.401 2.656V3.352C168.401 3.816 168.241 4.216 167.921 4.552C167.617 4.872 167.065 5.032 166.265 5.032ZM160.553 16.24H164.489V9.376H160.553V6.616H168.041V16.24H171.689V19H160.553V16.24ZM174.464 16.24H177.32V9.376H174.464V6.616H180.872V10.12H181.04C181.152 9.672 181.304 9.24 181.496 8.824C181.704 8.392 181.96 8.016 182.264 7.696C182.584 7.36 182.968 7.096 183.416 6.904C183.864 6.712 184.392 6.616 185 6.616H186.176V9.88H183.536C182.656 9.88 181.992 10.144 181.544 10.672C181.096 11.184 180.872 11.816 180.872 12.568V16.24H184.952V19H174.464V16.24ZM195.046 5.032C194.246 5.032 193.686 4.872 193.366 4.552C193.062 4.216 192.91 3.816 192.91 3.352V2.656C192.91 2.176 193.062 1.776 193.366 1.456C193.686 1.136 194.246 0.975999 195.046 0.975999C195.846 0.975999 196.398 1.136 196.702 1.456C197.022 1.776 197.182 2.176 197.182 2.656V3.352C197.182 3.816 197.022 4.216 196.702 4.552C196.398 4.872 195.846 5.032 195.046 5.032ZM189.334 16.24H193.27V9.376H189.334V6.616H196.822V16.24H200.47V19H189.334V16.24ZM208.525 19.288C207.149 19.288 205.949 19.08 204.925 18.664C203.917 18.248 203.157 17.68 202.645 16.96L204.637 15.112C205.117 15.64 205.677 16.056 206.317 16.36C206.973 16.648 207.717 16.792 208.549 16.792C209.253 16.792 209.805 16.688 210.205 16.48C210.605 16.256 210.805 15.92 210.805 15.472C210.805 15.12 210.669 14.88 210.397 14.752C210.125 14.608 209.749 14.496 209.269 14.416L207.277 14.104C206.717 14.024 206.197 13.904 205.717 13.744C205.237 13.568 204.821 13.336 204.469 13.048C204.117 12.76 203.837 12.408 203.629 11.992C203.421 11.576 203.317 11.072 203.317 10.48C203.317 9.184 203.813 8.168 204.805 7.432C205.797 6.696 207.189 6.328 208.981 6.328C210.197 6.328 211.229 6.496 212.077 6.832C212.941 7.152 213.629 7.616 214.141 8.224L212.365 10.24C211.997 9.84 211.525 9.504 210.949 9.232C210.373 8.96 209.677 8.824 208.861 8.824C207.485 8.824 206.797 9.24 206.797 10.072C206.797 10.44 206.933 10.696 207.205 10.84C207.477 10.968 207.853 11.072 208.333 11.152L210.301 11.464C210.861 11.544 211.381 11.672 211.861 11.848C212.341 12.008 212.757 12.232 213.109 12.52C213.477 12.808 213.765 13.16 213.973 13.576C214.181 13.992 214.285 14.496 214.285 15.088C214.285 16.384 213.781 17.408 212.773 18.16C211.781 18.912 210.365 19.288 208.525 19.288ZM231.954 16.24H235.602V9.376H231.714V6.616H235.602V4.816C235.602 3.76 235.906 2.904 236.514 2.248C237.138 1.576 238.098 1.24 239.394 1.24H243.594V4H239.154V6.616H243.594V9.376H239.154V16.24H243.042V19H231.954V16.24ZM252.609 5.032C251.809 5.032 251.249 4.872 250.929 4.552C250.625 4.216 250.473 3.816 250.473 3.352V2.656C250.473 2.176 250.625 1.776 250.929 1.456C251.249 1.136 251.809 0.975999 252.609 0.975999C253.409 0.975999 253.961 1.136 254.265 1.456C254.585 1.776 254.745 2.176 254.745 2.656V3.352C254.745 3.816 254.585 4.216 254.265 4.552C253.961 4.872 253.409 5.032 252.609 5.032ZM246.897 16.24H250.833V9.376H246.897V6.616H254.385V16.24H258.033V19H246.897V16.24ZM266.567 19.288C264.487 19.288 262.911 18.712 261.839 17.56C260.767 16.408 260.231 14.84 260.231 12.856C260.231 11.848 260.367 10.944 260.639 10.144C260.927 9.328 261.327 8.64 261.839 8.08C262.367 7.504 262.999 7.072 263.735 6.784C264.487 6.48 265.327 6.328 266.255 6.328C267.183 6.328 268.015 6.48 268.751 6.784C269.487 7.072 270.111 7.488 270.623 8.032C271.135 8.576 271.527 9.24 271.799 10.024C272.087 10.792 272.231 11.656 272.231 12.616V13.672H263.759V13.888C263.759 14.688 264.007 15.336 264.503 15.832C264.999 16.312 265.727 16.552 266.687 16.552C267.423 16.552 268.055 16.416 268.583 16.144C269.111 15.856 269.567 15.48 269.951 15.016L271.871 17.104C271.391 17.696 270.719 18.208 269.855 18.64C268.991 19.072 267.895 19.288 266.567 19.288ZM266.279 8.872C265.511 8.872 264.895 9.112 264.431 9.592C263.983 10.056 263.759 10.688 263.759 11.488V11.68H268.751V11.488C268.751 10.672 268.527 10.032 268.079 9.568C267.647 9.104 267.047 8.872 266.279 8.872ZM275.054 16.24H278.846V4H275.054V1.24H282.398V16.24H286.19V19H275.054V16.24ZM297.245 16.744H297.077C296.757 17.496 296.309 18.112 295.733 18.592C295.173 19.056 294.397 19.288 293.405 19.288C292.717 19.288 292.085 19.16 291.509 18.904C290.949 18.648 290.461 18.256 290.045 17.728C289.645 17.2 289.325 16.528 289.085 15.712C288.861 14.896 288.749 13.928 288.749 12.808C288.749 11.688 288.861 10.72 289.085 9.904C289.325 9.088 289.645 8.416 290.045 7.888C290.461 7.36 290.949 6.968 291.509 6.712C292.085 6.456 292.717 6.328 293.405 6.328C293.901 6.328 294.341 6.392 294.725 6.52C295.109 6.648 295.445 6.824 295.733 7.048C296.037 7.272 296.293 7.544 296.501 7.864C296.725 8.168 296.917 8.504 297.077 8.872H297.245V1.24H300.797V19H297.245V16.744ZM294.941 16.528C295.565 16.528 296.101 16.376 296.549 16.072C297.013 15.768 297.245 15.288 297.245 14.632V10.984C297.245 10.328 297.013 9.848 296.549 9.544C296.101 9.24 295.565 9.088 294.941 9.088C294.141 9.088 293.525 9.336 293.093 9.832C292.661 10.312 292.445 10.984 292.445 11.848V13.768C292.445 14.632 292.661 15.312 293.093 15.808C293.525 16.288 294.141 16.528 294.941 16.528Z" fill="#06243A"/>
</svg>
